<svg version="1.1" viewBox="0.0 0.0 1137.8057742782153 565.8530183727034" fill="none" stroke="none" stroke-linecap="square" stroke-miterlimit="10" xmlns:xlink="http://www.w3.org/1999/xlink" xmlns="http://www.w3.org/2000/svg"><clipPath id="p.0"><path d="m0 0l1137.8058 0l0 565.853l-1137.8058 0l0 -565.853z" clip-rule="nonzero"/></clipPath><g clip-path="url(#p.0)"><path fill="#ffffff" d="m0 0l1137.8058 0l0 565.853l-1137.8058 0z" fill-rule="evenodd"/><path fill="#000000" fill-opacity="0.0" d="m170.521 6.1049867l21.133865 0l0 91.43307l-21.133865 0z" fill-rule="evenodd"/><path fill="#000000" fill-opacity="0.0" d="m191.65486 6.1049867l21.13385 0l0 91.43307l-21.13385 0z" fill-rule="evenodd"/><path fill="#000000" fill-opacity="0.0" d="m212.78871 6.1049867l21.133865 0l0 91.43307l-21.133865 0z" fill-rule="evenodd"/><path fill="#000000" fill-opacity="0.0" d="m233.92258 6.1049867l21.13385 0l0 91.43307l-21.13385 0z" fill-rule="evenodd"/><path fill="#000000" fill-opacity="0.0" d="m255.05643 6.1049867l21.13385 0l0 91.43307l-21.13385 0z" fill-rule="evenodd"/><path fill="#000000" fill-opacity="0.0" d="m276.19028 6.1049867l21.13388 0l0 91.43307l-21.13388 0z" fill-rule="evenodd"/><path fill="#000000" fill-opacity="0.0" d="m170.521 51.82152l10.582672 -45.700787" fill-rule="evenodd"/><path stroke="#000000" stroke-width="4.0" stroke-linejoin="round" stroke-linecap="butt" d="m170.521 51.82152l10.582672 -45.700787" fill-rule="evenodd"/><path fill="#000000" fill-opacity="0.0" d="m181.08792 6.1049867l21.133865 91.43307" fill-rule="evenodd"/><path stroke="#000000" stroke-width="4.0" stroke-linejoin="round" stroke-linecap="butt" d="m181.08792 6.1049867l21.133865 91.43307" fill-rule="evenodd"/><path fill="#000000" fill-opacity="0.0" d="m202.22179 97.538055l21.13385 -91.43307" fill-rule="evenodd"/><path stroke="#000000" stroke-width="4.0" stroke-linejoin="round" stroke-linecap="butt" d="m202.22179 97.538055l21.13385 -91.43307" fill-rule="evenodd"/><path fill="#000000" fill-opacity="0.0" d="m223.35564 6.1049867l21.133865 91.43307" fill-rule="evenodd"/><path stroke="#000000" stroke-width="4.0" stroke-linejoin="round" stroke-linecap="butt" d="m223.35564 6.1049867l21.133865 91.43307" fill-rule="evenodd"/><path fill="#000000" fill-opacity="0.0" d="m244.4895 97.538055l21.13385 -91.43307" fill-rule="evenodd"/><path stroke="#000000" stroke-width="4.0" stroke-linejoin="round" stroke-linecap="butt" d="m244.4895 97.538055l21.13385 -91.43307" fill-rule="evenodd"/><path fill="#000000" fill-opacity="0.0" d="m265.62335 6.1049867l21.13388 91.43307" fill-rule="evenodd"/><path stroke="#000000" stroke-width="4.0" stroke-linejoin="round" stroke-linecap="butt" d="m265.62335 6.1049867l21.13388 91.43307" fill-rule="evenodd"/><path fill="#000000" fill-opacity="0.0" d="m286.75723 97.538055l10.582672 -45.700787" fill-rule="evenodd"/><path stroke="#000000" stroke-width="4.0" stroke-linejoin="round" stroke-linecap="butt" d="m286.75723 97.538055l10.582672 -45.700787" fill-rule="evenodd"/><path fill="#000000" d="m386.79922 317.22308l15.653534 0l0 156.8504l-15.653534 0z" fill-rule="evenodd"/><path fill="#000000" d="m418.61023 347.6824l9.13385 0l0 91.433075l-9.13385 0z" fill-rule="evenodd"/><path fill="#000000" fill-opacity="0.0" d="m170.521 51.82152l-163.20317 0l0 343.8425l379.48666 0" fill-rule="evenodd"/><path stroke="#000000" stroke-width="4.0" stroke-linejoin="round" stroke-linecap="butt" d="m170.521 51.82152l-163.20317 0l0 343.8425l379.48666 0" fill-rule="evenodd"/><path fill="#000000" fill-opacity="0.0" d="m828.9252 6.1049867l21.133911 0l0 91.43307l-21.133911 0z" fill-rule="evenodd"/><path fill="#000000" fill-opacity="0.0" d="m850.0591 6.1049867l21.13385 0l0 91.43307l-21.13385 0z" fill-rule="evenodd"/><path fill="#000000" fill-opacity="0.0" d="m871.19293 6.1049867l21.13385 0l0 91.43307l-21.13385 0z" fill-rule="evenodd"/><path fill="#000000" fill-opacity="0.0" d="m892.3268 6.1049867l21.13385 0l0 91.43307l-21.13385 0z" fill-rule="evenodd"/><path fill="#000000" fill-opacity="0.0" d="m913.46063 6.1049867l21.13385 0l0 91.43307l-21.13385 0z" fill-rule="evenodd"/><path fill="#000000" fill-opacity="0.0" d="m934.5945 6.1049867l21.13385 0l0 91.43307l-21.13385 0z" fill-rule="evenodd"/><path fill="#000000" fill-opacity="0.0" d="m828.9252 51.82152l10.582703 -45.700787" fill-rule="evenodd"/><path stroke="#000000" stroke-width="4.0" stroke-linejoin="round" stroke-linecap="butt" d="m828.9252 51.82152l10.582703 -45.700787" fill-rule="evenodd"/><path fill="#000000" fill-opacity="0.0" d="m839.4921 6.1049867l21.13385 91.43307" fill-rule="evenodd"/><path stroke="#000000" stroke-width="4.0" stroke-linejoin="round" stroke-linecap="butt" d="m839.4921 6.1049867l21.13385 91.43307" fill-rule="evenodd"/><path fill="#000000" fill-opacity="0.0" d="m860.626 97.538055l21.13385 -91.43307" fill-rule="evenodd"/><path stroke="#000000" stroke-width="4.0" stroke-linejoin="round" stroke-linecap="butt" d="m860.626 97.538055l21.13385 -91.43307" fill-rule="evenodd"/><path fill="#000000" fill-opacity="0.0" d="m881.7598 6.1049867l21.13385 91.43307" fill-rule="evenodd"/><path stroke="#000000" stroke-width="4.0" stroke-linejoin="round" stroke-linecap="butt" d="m881.7598 6.1049867l21.13385 91.43307" fill-rule="evenodd"/><path fill="#000000" fill-opacity="0.0" d="m902.8937 97.538055l21.133911 -91.43307" fill-rule="evenodd"/><path stroke="#000000" stroke-width="4.0" stroke-linejoin="round" stroke-linecap="butt" d="m902.8937 97.538055l21.133911 -91.43307" fill-rule="evenodd"/><path fill="#000000" fill-opacity="0.0" d="m924.0276 6.1049867l21.13385 91.43307" fill-rule="evenodd"/><path stroke="#000000" stroke-width="4.0" stroke-linejoin="round" stroke-linecap="butt" d="m924.0276 6.1049867l21.13385 91.43307" fill-rule="evenodd"/><path fill="#000000" fill-opacity="0.0" d="m945.16144 97.538055l10.582642 -45.700787" fill-rule="evenodd"/><path stroke="#000000" stroke-width="4.0" stroke-linejoin="round" stroke-linecap="butt" d="m945.16144 97.538055l10.582642 -45.700787" fill-rule="evenodd"/><path fill="#000000" fill-opacity="0.0" d="m955.72833 51.82152l171.09882 0l0 341.5748l-699.06726 0" fill-rule="evenodd"/><path stroke="#000000" stroke-width="4.0" stroke-linejoin="round" stroke-linecap="butt" d="m955.72833 51.82152l171.09882 0l0 341.5748l-699.06726 0" fill-rule="evenodd"/><path fill="#000000" fill-opacity="0.0" d="m828.9252 51.82152l-265.80054 0l0 0.062992096l-265.78998 0" fill-rule="evenodd"/><path stroke="#000000" stroke-width="4.0" stroke-linejoin="round" stroke-linecap="butt" d="m828.9252 51.82152l-265.80054 0l0 0.062992096l-265.78998 0" fill-rule="evenodd"/><path fill="#000000" fill-opacity="0.0" d="m71.365204 97.47507l325.13385 0l0 91.433075l-325.13385 0z" fill-rule="evenodd"/><path fill="#000000" d="m111.00592 161.47507l0 -47.718758l20.28125 0q7.65625 0 11.109375 1.296875q3.46875 1.28125 5.546875 4.578125q2.09375 3.28125 2.09375 7.5q0 5.3750076 -3.15625 8.875008q-3.15625 3.5 -9.4375 4.40625q3.125 1.828125 5.15625 4.015625q2.03125 2.171875 5.484375 7.734375l5.828125 9.3125l-11.53125 0l-6.953125 -10.375q-3.71875 -5.578125 -5.09375 -7.015625q-1.359375 -1.453125 -2.890625 -1.984375q-1.53125 -0.546875 -4.84375 -0.546875l-1.953125 0l0 19.921875l-9.640625 0zm9.640625 -27.53125l7.125 0q6.9375 0 8.65625 -0.578125q1.734375 -0.59375 2.703125 -2.03125q0.984375 -1.4375 0.984375 -3.5781326q0 -2.40625 -1.296875 -3.890625q-1.28125 -1.484375 -3.625 -1.875q-1.171875 -0.15625 -7.03125 -0.15625l-7.515625 0l0 12.109383z" fill-rule="nonzero"/><path fill="#000000" d="m171.7523 186.47507l-6.09375 0l0 -22.984375q-3.34375 3.125 -7.875 4.625l0 -5.53125q2.390625 -0.78125 5.1875 -2.953125q2.796875 -2.1875 3.84375 -5.09375l4.9375 0l0 31.9375z" fill-rule="nonzero"/><path fill="#000000" d="m200.26682 134.91257l0 -8.390633l33.359375 0l0 8.390633l-33.359375 0zm0 14.453125l0 -8.421875l33.359375 0l0 8.421875l-33.359375 0zm75.445435 12.109375l0 -9.59375l-19.53125 0l0 -8.015625l20.703125 -30.296883l7.6875 0l0 30.265633l5.921875 0l0 8.046875l-5.921875 0l0 9.59375l-8.859375 0zm0 -17.640625l0 -16.312508l-10.96875 16.312508l10.96875 0zm49.855896 10.9375q-3.765625 -1.59375 -6.015625 -3.640625q-3.28125 -2.9375 -4.90625 -7.03125q-1.609375 -4.109375 -1.609375 -9.015625q0 -10.093758 6.234375 -16.312508q6.234375 -6.21875 16.546875 -6.21875q7.59375 0 12.6875 2.578125q5.09375 2.5625 8.125 7.953125q3.046875 5.3906326 3.046875 11.937508q0 6.5625 -3.046875 11.734375q-3.03125 5.15625 -9.375 7.953125l10.734375 -0.75l2.34375 0l0 7.515625l-20.890625 0l0 -7.90625q3.15625 -1.53125 4.96875 -3.421875q2.484375 -2.609375 3.734375 -6.328125q1.25 -3.734375 1.25 -7.859375q0 -8.046883 -3.734375 -12.156258q-3.71875 -4.125 -9.515625 -4.125q-5.53125 0 -9.265625 4.21875q-3.71875 4.2187576 -3.71875 11.906258q0 4.421875 1.40625 8.234375q1.421875 3.796875 4.0625 6.4375q1.6875 1.6875 4.6875 3.09375l0 7.90625l-20.984375 0l0 -7.484375l3.1875 0l10.046875 0.78125z" fill-rule="nonzero"/><path fill="#000000" fill-opacity="0.0" d="m704.7775 97.47507l375.1181 0l0 91.433075l-375.1181 0z" fill-rule="evenodd"/><path fill="#000000" d="m769.41034 161.47507l0 -47.718758l20.28125 0q7.65625 0 11.109375 1.296875q3.46875 1.28125 5.546875 4.578125q2.09375 3.28125 2.09375 7.5q0 5.3750076 -3.15625 8.875008q-3.15625 3.5 -9.4375 4.40625q3.125 1.828125 5.15625 4.015625q2.03125 2.171875 5.484375 7.734375l5.828125 9.3125l-11.53125 0l-6.953125 -10.375q-3.71875 -5.578125 -5.09375 -7.015625q-1.359375 -1.453125 -2.890625 -1.984375q-1.53125 -0.546875 -4.84375 -0.546875l-1.953125 0l0 19.921875l-9.640625 0zm9.640625 -27.53125l7.125 0q6.9375 0 8.65625 -0.578125q1.734375 -0.59375 2.703125 -2.03125q0.984375 -1.4375 0.984375 -3.5781326q0 -2.40625 -1.296875 -3.890625q-1.28125 -1.484375 -3.625 -1.875q-1.171875 -0.15625 -7.03125 -0.15625l-7.515625 0l0 12.109383z" fill-rule="nonzero"/><path fill="#000000" d="m835.15674 180.81882l0 5.65625l-21.375 0q0.34375 -3.21875 2.078125 -6.09375q1.734375 -2.875 6.859375 -7.625q4.125 -3.828125 5.0625 -5.203125q1.25 -1.890625 1.25 -3.734375q0 -2.03125 -1.09375 -3.125q-1.09375 -1.109375 -3.03125 -1.109375q-1.90625 0 -3.03125 1.15625q-1.125 1.15625 -1.3125 3.8125l-6.0625 -0.59375q0.53125 -5.046875 3.390625 -7.234375q2.875 -2.1875 7.171875 -2.1875q4.703125 0 7.390625 2.546875q2.703125 2.53125 2.703125 6.296875q0 2.15625 -0.78125 4.109375q-0.765625 1.9375 -2.4375 4.0625q-1.109375 1.40625 -4.0 4.0625q-2.875 2.640625 -3.65625 3.515625q-0.765625 0.859375 -1.234375 1.6875l12.109375 0z" fill-rule="nonzero"/><path fill="#000000" d="m858.67126 134.91257l0 -8.390633l33.359375 0l0 8.390633l-33.359375 0zm0 14.453125l0 -8.421875l33.359375 0l0 8.421875l-33.359375 0zm88.49231 -23.921883l-8.84375 0.984375q-0.328125 -2.734375 -1.703125 -4.03125q-1.359375 -1.3125 -3.546875 -1.3125q-2.890625 0 -4.890625 2.609375q-2.0 2.59375 -2.53125 10.828133q3.421875 -4.03125 8.5 -4.03125q5.734375 0 9.8125 4.359375q4.078125 4.359375 4.078125 11.265625q0 7.3125 -4.296875 11.75q-4.28125 4.421875 -11.03125 4.421875q-7.21875 0 -11.875 -5.609375q-4.65625 -5.625 -4.65625 -18.40625q0 -13.125008 4.84375 -18.906258q4.859375 -5.796875 12.609375 -5.796875q5.4375 0 9.0 3.046875q3.5625 3.03125 4.53125 8.828125zm-20.734375 19.953133q0 4.453125 2.046875 6.890625q2.0625 2.421875 4.703125 2.421875q2.53125 0 4.21875 -1.984375q1.703125 -1.984375 1.703125 -6.515625q0 -4.65625 -1.828125 -6.8125q-1.828125 -2.171875 -4.5625 -2.171875q-2.625 0 -4.453125 2.078125q-1.828125 2.0625 -1.828125 6.09375zm57.543396 9.375q-3.765625 -1.59375 -6.015625 -3.640625q-3.28125 -2.9375 -4.90625 -7.03125q-1.609375 -4.109375 -1.609375 -9.015625q0 -10.093758 6.234375 -16.312508q6.234375 -6.21875 16.546875 -6.21875q7.59375 0 12.6875 2.578125q5.09375 2.5625 8.125 7.953125q3.046875 5.3906326 3.046875 11.937508q0 6.5625 -3.046875 11.734375q-3.03125 5.15625 -9.375 7.953125l10.734375 -0.75l2.34375 0l0 7.515625l-20.890625 0l0 -7.90625q3.15625 -1.53125 4.96875 -3.421875q2.484375 -2.609375 3.734375 -6.328125q1.25 -3.734375 1.25 -7.859375q0 -8.046883 -3.734375 -12.156258q-3.71875 -4.125 -9.515625 -4.125q-5.53125 0 -9.265625 4.21875q-3.71875 4.2187576 -3.71875 11.906258q0 4.421875 1.40625 8.234375q1.421875 3.796875 4.0625 6.4375q1.6875 1.6875 4.6875 3.09375l0 7.90625l-20.984375 0l0 -7.484375l3.1875 0l10.046875 0.78125z" fill-rule="nonzero"/><path fill="#000000" fill-opacity="0.0" d="m266.20078 482.29135l256.85043 0l0 91.433075l-256.85043 0z" fill-rule="evenodd"/><path fill="#000000" d="m359.7845 543.5079l0 8.5l-32.0625 0q0.53125 -4.8125 3.125 -9.125q2.609375 -4.3125 10.28125 -11.4375q6.1875 -5.765625 7.59375 -7.8125q1.890625 -2.84375 1.890625 -5.609375q0 -3.046875 -1.65625 -4.6875q-1.640625 -1.65625 -4.53125 -1.65625q-2.859375 0 -4.5625 1.734375q-1.6875 1.71875 -1.953125 5.71875l-9.109375 -0.90625q0.8125 -7.546875 5.109375 -10.828125q4.296875 -3.296875 10.734375 -3.296875q7.0625 0 11.09375 3.8125q4.046875 3.796875 4.046875 9.46875q0 3.21875 -1.15625 6.140625q-1.15625 2.90625 -3.65625 6.09375q-1.671875 2.109375 -6.0 6.09375q-4.328125 3.96875 -5.484375 5.265625q-1.140625 1.296875 -1.859375 2.53125l18.15625 0zm21.64917 -39.40625q6.921875 0 10.828125 4.9375q4.6562195 5.859375 4.6562195 19.4375q0 13.546875 -4.6874695 19.46875q-3.875 4.875 -10.796875 4.875q-6.96875 0 -11.234375 -5.34375q-4.265625 -5.359375 -4.265625 -19.09375q0 -13.484375 4.6875 -19.40625q3.875 -4.875 10.8125 -4.875zm0 7.578125q-1.671875 0 -2.96875 1.0625q-1.296875 1.0625 -2.015625 3.796875q-0.9375 3.546875 -0.9375 11.9375q0 8.390625 0.84375 11.53125q0.84375 3.140625 2.125 4.1875q1.28125 1.046875 2.953125 1.046875q1.65625 0 2.953125 -1.0625q1.3125 -1.0625 2.015625 -3.796875q0.953125 -3.515625 0.953125 -11.90625q0 -8.390625 -0.859375 -11.53125q-0.84375 -3.140625 -2.125 -4.203125q-1.28125 -1.0625 -2.9375 -1.0625zm54.30899 40.328125l-17.046875 -47.71875l10.453125 0l12.0625 35.3125l11.6875 -35.3125l10.21875 0l-17.078125 47.71875l-10.296875 0z" fill-rule="nonzero"/><path fill="#000000" fill-opacity="0.0" d="m353.8176 347.6824l32.97638 0l0 47.968506l-32.97638 0z" fill-rule="evenodd"/><path fill="#000000" d="m368.19922 380.22916l0 -6.203125l-6.234375 0l0 -4.265625l6.234375 0l0 -6.203125l4.171875 0l0 6.203125l6.265625 0l0 4.265625l-6.265625 0l0 6.203125l-4.171875 0z" fill-rule="nonzero"/><path fill="#000000" fill-opacity="0.0" d="m427.74408 347.6824l32.97638 0l0 47.968506l-32.97638 0z" fill-rule="evenodd"/><path fill="#000000" d="m440.558 377.30728l0 -4.578125l8.984375 0l0 4.578125l-8.984375 0z" fill-rule="nonzero"/><path fill="#000000" fill-opacity="0.0" d="m265.97507 371.43307l-234.23622 0" fill-rule="evenodd"/><path stroke="#ff9900" stroke-width="4.0" stroke-linejoin="round" stroke-linecap="butt" d="m265.97507 371.43307l-210.23622 0" fill-rule="evenodd"/><path fill="#ff9900" stroke="#ff9900" stroke-width="4.0" stroke-linecap="butt" d="m55.738846 364.82614l-18.152393 6.6069336l18.152393 6.6069336z" fill-rule="evenodd"/><path fill="#000000" fill-opacity="0.0" d="m65.38189 290.62466l200.81888 0l0 65.543304l-200.81888 0z" fill-rule="evenodd"/><path fill="#ff9900" d="m158.84422 347.39633l9.984375 -47.71875l9.796875 0l-9.953125 47.71875l-9.828125 0z" fill-rule="nonzero"/></g></svg>